<?xml version="1.0" encoding="utf-8"?><!DOCTYPE svg PUBLIC "-//W3C//DTD SVG 1.1//EN" "http://www.w3.org/Graphics/SVG/1.1/DTD/svg11.dtd"><svg version="1.1" xmlns="http://www.w3.org/2000/svg" xmlns:xlink="http://www.w3.org/1999/xlink" width="32" height="32" viewBox="0 0 32 32" data-tags="vk"><g transform="scale(0.03125 0.03125)"><path d="M499.243 800.896h61.312s18.475-2.005 27.904-12.117c8.96-9.429 8.96-26.88 8.96-26.88s-1.323-82.219 37.077-94.293c37.845-11.989 85.845 79.36 137.003 114.475 39.083 26.837 68.48 21.077 68.48 21.077l137.003-1.877s71.765-4.48 37.845-60.843c-2.603-4.48-19.243-41.6-101.163-117.76-85.845-79.403-74.325-66.603 28.843-204.245 62.677-83.84 88.32-135.083 80-156.843-7.083-20.48-53.76-15.403-53.76-15.403l-153.685 1.323s-11.52-1.323-19.84 3.84c-8.32 5.077-13.397 16.683-13.397 16.683s-24.405 65.237-57.003 120.32c-69.248 116.437-96.768 122.837-107.648 115.157-25.771-16.683-19.157-67.413-19.157-103.765 0-112.683 17.237-160-33.323-172.16-16.64-3.883-29.056-6.4-71.893-7.083-55.040-0.597-101.461 0.427-127.787 13.269-17.28 8.661-30.72 27.819-22.997 28.8 10.24 1.28 33.237 6.229 45.397 22.912 16 21.589 15.317 69.803 15.317 69.803s9.003 132.949-21.077 149.461c-21.12 11.179-49.28-11.947-110.72-117.589-31.36-53.76-55.083-113.92-55.083-113.92s-4.48-10.923-12.757-17.323c-9.685-7.040-23.765-9.6-23.765-9.6l-146.56 1.28s-21.76 0.683-29.397 10.24c-7.083 8.32-0.683 26.24-0.683 26.24s114.603 268.245 244.565 403.328c119.040 123.819 254.123 115.84 254.123 115.84l-2.133-2.347z" /></g></svg>